<?xml version="1.0" encoding="UTF-8"?>
<svg id="_Слой_2" data-name="Слой 2" xmlns="http://www.w3.org/2000/svg" viewBox="0 0 422.46 363.54">
  <defs>
    <style>
      .cls-1 {
        fill: #383838;
        stroke-width: 0px;
      }
    </style>
  </defs>
  <g id="_Слой_1-2" data-name="Слой 1">
    <g>
      <g>
        <path class="cls-1" d="M64.75,319.26v.6h-15.42v-.6l.67-.15c.65-.1,1.11-.45,1.38-1.05.27-.6.24-1.17-.11-1.72l-6.59-11.68h-28.37l-5.84,10.33c-.5.85-.54,1.71-.11,2.58.42.87,1.13,1.36,2.13,1.46l2.1.22v.6H0v-.6l1.57-.15c1.55-.15,2.97-.65,4.27-1.5,1.3-.85,2.34-1.95,3.14-3.29l20.66-36.3-2.4-4.19c-.75-1.3-1.76-2.37-3.03-3.22s-2.68-1.35-4.23-1.5l-2.47-.22v-.6h15.87v.6c-.35.1-.59.31-.71.64-.12.33-.11.64.04.94l25.22,44.69c.65,1.1,1.48,2,2.51,2.69,1.02.7,2.16,1.15,3.41,1.35l.9.08ZM43.79,303.02l-13.17-23.35-13.32,23.35h26.5Z"/>
        <path class="cls-1" d="M122.31,294.11c0,3.69-.72,7.16-2.17,10.4-1.45,3.24-3.41,6.08-5.88,8.5-2.47,2.42-5.36,4.33-8.68,5.73-3.32,1.4-6.87,2.1-10.67,2.1s-7.35-.7-10.67-2.1c-3.32-1.4-6.21-3.3-8.68-5.73-2.47-2.42-4.43-5.25-5.88-8.5-1.45-3.24-2.17-6.71-2.17-10.4s.72-7.16,2.17-10.4c1.45-3.24,3.41-6.07,5.88-8.5,2.47-2.42,5.36-4.33,8.68-5.73,3.32-1.4,6.87-2.1,10.67-2.1s7.35.7,10.67,2.1c3.32,1.4,6.21,3.31,8.68,5.73,2.47,2.42,4.43,5.25,5.88,8.5,1.45,3.24,2.17,6.71,2.17,10.4ZM74.4,294.11c0,3.49.54,6.77,1.61,9.84,1.07,3.07,2.54,5.74,4.42,8.01,1.87,2.27,4.04,4.07,6.51,5.39,2.47,1.32,5.13,1.98,7.97,1.98s5.5-.66,7.97-1.98c2.47-1.32,4.64-3.12,6.51-5.39,1.87-2.27,3.34-4.94,4.42-8.01,1.07-3.07,1.61-6.35,1.61-9.84s-.54-6.76-1.61-9.81c-1.07-3.04-2.54-5.71-4.42-8.01-1.87-2.29-4.04-4.1-6.51-5.43-2.47-1.32-5.13-1.98-7.97-1.98s-5.5.66-7.97,1.98c-2.47,1.32-4.64,3.13-6.51,5.43-1.87,2.3-3.34,4.97-4.42,8.01-1.07,3.04-1.61,6.31-1.61,9.81ZM127.47,324.42c-2.3,3.29-4.5,5.69-6.62,7.19-2.12,1.5-4.17,2.4-6.14,2.7-1.97.3-3.89.12-5.76-.52-1.87-.65-3.73-1.47-5.58-2.47-1.85-1-3.69-2.06-5.54-3.18-1.85-1.12-3.76-2.02-5.73-2.69-1.97-.67-3.99-.97-6.06-.9-2.07.08-4.25.81-6.55,2.21l-.82-1.12c3.24-1.45,6.25-2.31,9.02-2.58s5.34-.2,7.71.22c2.37.42,4.57,1.1,6.59,2.02,2.02.92,3.93,1.82,5.73,2.69,1.8.87,3.49,1.62,5.09,2.25,1.6.62,3.14.89,4.64.79,1.5-.1,2.98-.7,4.45-1.8,1.47-1.1,2.96-2.92,4.45-5.46l1.12.67Z"/>
        <path class="cls-1" d="M166.62,268.29h14.6v.6l-1.5.15c-1.45.15-2.63.75-3.56,1.8-.92,1.05-1.38,2.3-1.38,3.74v28.59c0,1.05-.07,2.22-.22,3.52-.15,1.3-.45,2.62-.9,3.97-.45,1.35-1.1,2.66-1.95,3.93-.85,1.27-2,2.42-3.44,3.44-1.45,1.02-3.22,1.83-5.31,2.43-2.1.6-4.59.9-7.48.9-5.04,0-9.15-.49-12.31-1.46-3.17-.97-5.65-2.29-7.45-3.97s-3.02-3.6-3.67-5.8c-.65-2.2-.97-4.52-.97-6.96v-31.44c0-.6-.19-1.13-.56-1.61-.37-.47-.86-.76-1.46-.86l-1.95-.37v-.6h14.6v.6l-1.95.37c-.6.1-1.09.39-1.46.86-.37.48-.56,1.01-.56,1.61v31.44c0,5.44,1.6,9.48,4.79,12.13,3.19,2.65,7.58,3.97,13.17,3.97,3.54,0,6.45-.46,8.72-1.38,2.27-.92,4.05-2.15,5.35-3.67,1.3-1.52,2.18-3.24,2.66-5.17.47-1.92.71-3.88.71-5.88v-28.59c0-1.45-.46-2.69-1.38-3.74-.92-1.05-2.11-1.65-3.56-1.8l-1.5-.15-.07-.6Z"/>
        <path class="cls-1" d="M242.22,319.26v.6h-15.42v-.6l.67-.15c.65-.1,1.11-.45,1.38-1.05.27-.6.24-1.17-.11-1.72l-6.59-11.68h-28.37l-5.84,10.33c-.5.85-.54,1.71-.11,2.58.42.87,1.13,1.36,2.13,1.46l2.1.22v.6h-14.6v-.6l1.57-.15c1.55-.15,2.97-.65,4.27-1.5,1.3-.85,2.34-1.95,3.14-3.29l20.66-36.3-2.4-4.19c-.75-1.3-1.76-2.37-3.03-3.22s-2.68-1.35-4.23-1.5l-2.47-.22v-.6h15.87v.6c-.35.1-.59.31-.71.64-.12.33-.11.64.04.94l25.22,44.69c.65,1.1,1.48,2,2.51,2.69,1.02.7,2.16,1.15,3.41,1.35l.9.08ZM221.26,303.02l-13.17-23.35-13.32,23.35h26.5Z"/>
        <path class="cls-1" d="M306.74,268.43h14.6v.6l-.97.08c-1.7.2-3.21.81-4.53,1.83-1.32,1.02-2.28,2.33-2.88,3.93l-16.99,45.21h-1.65c-1-5.99-2.32-11.83-3.97-17.52-.7-2.4-1.5-4.88-2.4-7.45-.9-2.57-1.9-5.09-2.99-7.56-1.1-2.47-2.32-4.8-3.67-7-1.35-2.2-2.82-4.17-4.42-5.91.25,2.35.54,4.98.86,7.9.32,2.92.4,6.24.22,9.96-.18,3.72-.75,7.85-1.72,12.39-.97,4.54-2.63,9.58-4.98,15.12h-1.65l-21.71-47.23c-.45-1-1.1-1.82-1.95-2.47-.85-.65-1.8-1.07-2.84-1.27l-.6-.08v-.6h14.6v.6l-.82.15c-.85.15-1.46.59-1.83,1.31-.37.72-.39,1.46-.04,2.21l18.04,39.3c.75-1.85,1.4-3.94,1.95-6.29.55-2.34.97-4.82,1.27-7.41.3-2.59.47-5.23.52-7.9.05-2.67-.03-5.24-.22-7.71-.2-2.47-.55-4.75-1.05-6.85-.5-2.1-1.12-3.89-1.87-5.39l3.67-4.34c2.2,1.85,4.22,3.99,6.06,6.44,1.85,2.45,3.53,5.01,5.05,7.71,1.52,2.69,2.86,5.46,4,8.31,1.15,2.84,2.15,5.59,2.99,8.23.85,2.65,1.53,5.13,2.06,7.45s.89,4.3,1.09,5.95l13.85-36.83c.35-.95.25-1.85-.3-2.69-.55-.85-1.32-1.32-2.32-1.42l-2.54-.3.07-.45Z"/>
        <path class="cls-1" d="M371.04,308.56l-6.44,11.23h-40.72v-.6l1.95-.37c.6-.1,1.08-.39,1.46-.86.37-.47.56-1.01.56-1.61v-44.84c0-.6-.19-1.13-.56-1.61-.37-.47-.86-.76-1.46-.86l-1.95-.37v-.6h41.32l2.99,11.75-.9.38c-.4-.5-.81-1-1.23-1.5-.42-.5-.89-1-1.38-1.5-.85-.85-1.81-1.77-2.88-2.77-1.07-1-2.23-1.95-3.48-2.84-1.7-.85-3.71-1.47-6.03-1.87-2.32-.4-4.62-.59-6.89-.56-2.27.03-4.39.25-6.36.67-1.97.42-3.46,1.01-4.45,1.76v18.86c.7.1,1.66.19,2.88.26,1.22.07,2.56-.01,4-.26.55-.5,1.01-1.15,1.38-1.95.37-.8.69-1.6.94-2.39.15-.45.29-.91.41-1.38.12-.47.24-.96.34-1.46h.75c.25,2.05.59,3.89,1.01,5.54.42,1.65.85,3.11,1.27,4.38.42,1.27.82,2.32,1.2,3.14.37.82.64,1.41.79,1.76l-.75.38c-1.35-1.5-2.6-2.73-3.74-3.71-1.15-.97-2.07-1.71-2.77-2.21-1.6-.5-3.11-.7-4.53-.6-1.42.1-2.51.25-3.26.45v24.1c1,.75,2.57,1.32,4.72,1.72,2.14.4,4.52.61,7.11.64,2.59.03,5.2-.15,7.82-.52,2.62-.37,4.9-.94,6.85-1.68,1.3-.95,2.53-1.91,3.71-2.88,1.17-.97,2.18-1.88,3.03-2.73.5-.5.97-.97,1.42-1.42.45-.45.87-.9,1.27-1.35l.6.3Z"/>
        <path class="cls-1" d="M422.46,308.7l-6.44,11.23h-40.72v-.6l1.95-.37c.6-.1,1.08-.39,1.46-.86.37-.47.56-1.01.56-1.61v-44.84c0-.6-.19-1.13-.56-1.61-.37-.47-.86-.76-1.46-.86l-1.95-.37v-.6h14.6v.6l-1.95.37c-.6.1-1.09.39-1.46.86-.37.47-.56,1.01-.56,1.61v44.84c.65.5,1.57.92,2.77,1.27,1.2.35,2.57.61,4.12.79,1.55.18,3.19.28,4.94.3,1.75.03,3.49-.05,5.24-.22,1.75-.17,3.43-.42,5.05-.75,1.62-.32,3.08-.74,4.38-1.24,1.3-.95,2.53-1.91,3.71-2.88,1.17-.97,2.18-1.88,3.03-2.73,1-.95,1.9-1.87,2.69-2.77l.6.45Z"/>
      </g>
      <g>
        <path class="cls-1" d="M121.97,161.64c11.91.63,23.69,2.92,35.01,6.78,14.94,5.11,29.62,12.02,43.64,20.53,13.68,8.32,27.69,16.37,41.62,23.91,2.84,1.53,5.84,3.09,8.93,4.63l24.04-24.04c-.85-.4-1.69-.81-2.55-1.23-13.35-6.49-27.85-13.32-43.09-20.28-14.96-6.84-31.46-11.9-49.03-15.04-17.54-3.14-36.86-3.71-57.4-1.67-2.15.21-4.41.49-6.75.82l5.57,5.57Z"/>
        <path class="cls-1" d="M198.01,193.24c-13.7-8.33-28.05-15.08-42.65-20.07-9.09-3.11-18.49-5.15-27.97-6.1l51.19,51.18c18.7,18.7,48.63,19.87,68.69,2.88-2.68-1.35-5.11-2.62-7.41-3.86-14.03-7.59-28.1-15.67-41.84-24.03Z"/>
        <path class="cls-1" d="M90.22,129.9l2.88,2.87c1.08-.51,2.16-1,3.25-1.45,14.62-6.08,30.11-9.4,46.04-9.86h0c2.01-.06,4.04-.09,6.06-.09,13.85,0,27.95,1.35,42,4.03,15.74,3,31.67,5.63,47.36,7.8,15.42,2.14,30.72,3.04,45.47,2.68,14.45-.36,28.21-4.13,40.89-11.2,6.97-3.89,13.78-9.2,20.23-15.79l-9.37-9.37c-10.15,4.23-21.55,6.27-33.92,6.1-12.87-.19-27.02-1-42.04-2.42-14.76-1.4-30.73-2.71-47.46-3.89-16.42-1.16-33.64-.12-51.19,3.1-17.53,3.2-35.81,9.44-54.34,18.55-5.22,2.56-10.55,5.56-15.86,8.93Z"/>
        <path class="cls-1" d="M283.4,140.89c-15.02.35-30.59-.56-46.28-2.73-15.77-2.19-31.79-4.83-47.61-7.84-15.75-3-31.56-4.3-46.98-3.85-15.32.44-30.21,3.63-44.26,9.48-.47.19-.93.39-1.4.6l15.13,15.13c3.68-.61,7.26-1.08,10.65-1.42,8.23-.82,16.27-1.22,24.09-1.22,12.14,0,23.74.98,34.68,2.94,17.98,3.21,34.89,8.4,50.23,15.41,15.3,6.99,29.83,13.83,43.2,20.33,1.38.67,2.75,1.33,4.11,1.98l73.12-73.12-4.14-4.14c-6.79,6.92-13.96,12.51-21.33,16.63-13.4,7.47-27.94,11.46-43.21,11.84Z"/>
        <path class="cls-1" d="M151.4,42.06c13.22-.08,25.55-.55,36.69-1.41,12.44-.96,23.55-4.17,33.02-9.55,8.46-4.81,15.72-12.39,21.58-22.54-8.59-5.75-18.41-8.57-28.18-8.57-13.09,0-26.1,5.06-35.93,14.89l-27.17,27.17Z"/>
        <path class="cls-1" d="M213.18,62.51c12.01-8.23,22.79-20.86,32.05-37.54,1.72-3.1,3.41-6.54,5.03-10.23-1.09-1.08-2.27-2.14-3.52-3.17-6.26,10.68-14.05,18.72-23.15,23.89-10.12,5.74-21.93,9.16-35.11,10.18-12.72.98-26.88,1.49-42.09,1.44h-.01l-31.12,31.12c4.25.26,8.49.49,12.71.69,15.55.71,30.86.21,45.52-1.49,14.36-1.68,27.71-6.69,39.7-14.9Z"/>
        <path class="cls-1" d="M249.6,27.41c-9.64,17.37-20.94,30.57-33.6,39.24-12.66,8.67-26.78,13.97-41.95,15.74-14.91,1.73-30.5,2.24-46.33,1.52-5.18-.24-10.65-.55-17.2-.97l-33.64,33.64,9.7,9.7c5.77-3.71,11.58-7,17.28-9.8,18.94-9.31,37.67-15.7,55.65-18.98,17.97-3.3,35.62-4.36,52.45-3.17,16.79,1.18,32.8,2.5,47.58,3.9,14.89,1.41,28.91,2.21,41.64,2.39,10.87.15,20.95-1.5,29.99-4.95L254.05,18.54c-1.44,3.15-2.93,6.13-4.45,8.87Z"/>
      </g>
      <g>
        <path class="cls-1" d="M20.1,360.07h-1.3v-15.63l-7.14,12.23h-.87l-7.14-12.23v15.63h-1.3v-18.15h1.3l7.59,12.98,7.56-12.98h1.3v18.15Z"/>
        <path class="cls-1" d="M36.95,360.07h-12.11v-18.15h11.86v1.17h-10.56v7.14h9.24v1.12h-9.24v7.54h10.81v1.17Z"/>
        <path class="cls-1" d="M48.21,360.07h-7.71v-18.15h11.91v1.17h-10.61v6.84h6.29c1.35,0,2.45.21,3.31.64s1.49,1.01,1.88,1.76.6,1.6.6,2.55-.21,1.84-.64,2.62c-.42.78-1.06,1.41-1.9,1.87-.84.47-1.88.7-3.13.7ZM48.09,358.9c1.05,0,1.9-.18,2.56-.54.66-.36,1.14-.84,1.45-1.46.31-.62.46-1.3.46-2.05,0-2.53-1.51-3.79-4.54-3.79h-6.22v7.84h6.29Z"/>
        <path class="cls-1" d="M69.18,360.07h-12.11v-18.15h11.86v1.17h-10.56v7.14h9.24v1.12h-9.24v7.54h10.81v1.17Z"/>
        <path class="cls-1" d="M86.5,360.07h-1.3v-16.97h-8.01l-.1,4.04c-.08,4.49-.55,7.77-1.4,9.83-.85,2.06-2.28,3.1-4.29,3.1v-1.17c1.5,0,2.59-.96,3.28-2.88.69-1.92,1.08-4.96,1.16-9.12l.15-4.97h10.51v18.15Z"/>
        <path class="cls-1" d="M97.49,360.07h-6.27v-18.15h1.3v7.21h4.84c1.35,0,2.45.24,3.31.71.86.47,1.49,1.12,1.88,1.95.4.82.6,1.76.6,2.81s-.21,1.91-.62,2.75c-.42.83-1.04,1.49-1.88,1.98-.84.49-1.89.74-3.16.74ZM97.34,358.95c1.03,0,1.88-.2,2.55-.59.67-.39,1.16-.92,1.47-1.57.32-.66.47-1.39.47-2.18,0-2.9-1.51-4.34-4.54-4.34h-4.77v8.69h4.82Z"/>
        <path class="cls-1" d="M128.69,363.54h-1.2v-3.47h-14.38v3.47h-1.17v-4.64h.72c1.01,0,1.78-.93,2.3-2.8.52-1.86.83-4.93.95-9.21l.12-4.97h10.51v16.97h2.15v4.64ZM125.22,358.9v-15.8h-7.99l-.02,1.5c0,3.86-.19,7.02-.56,9.49-.37,2.46-1,4.07-1.88,4.82h10.46Z"/>
        <path class="cls-1" d="M146.01,360.07h-1.3v-16.97h-8.01l-.1,4.04c-.08,4.49-.55,7.77-1.4,9.83-.85,2.06-2.28,3.1-4.29,3.1v-1.17c1.5,0,2.59-.96,3.28-2.88.69-1.92,1.08-4.96,1.16-9.12l.15-4.97h10.51v18.15Z"/>
        <path class="cls-1" d="M161.94,360.07h-1.3v-7.63h-4.32l-4.79,7.63h-1.5l4.94-7.79c-1.43-.33-2.49-.98-3.18-1.93s-1.04-2.05-1.04-3.28c0-1.43.52-2.65,1.55-3.64,1.03-1,2.5-1.5,4.39-1.5h5.24v18.15ZM160.64,351.29v-8.19h-3.84c-1.36,0-2.49.35-3.37,1.06-.88.71-1.32,1.68-1.32,2.91s.37,2.2,1.12,3.01c.75.81,1.9,1.21,3.44,1.21h3.97Z"/>
        <path class="cls-1" d="M181.71,360.07h-8.49v-18.15h8.46c1.25,0,2.25.47,3.01,1.41.76.94,1.14,2.01,1.14,3.21,0,.88-.22,1.7-.66,2.46-.44.76-1.09,1.34-1.93,1.76,1,.35,1.81.92,2.43,1.71.62.79.94,1.76.94,2.91,0,1.4-.5,2.53-1.49,3.39s-2.13,1.3-3.41,1.3ZM181.18,350.36c1.01,0,1.83-.38,2.45-1.14.62-.76.92-1.59.92-2.51s-.3-1.79-.89-2.52-1.37-1.1-2.33-1.1h-6.81v7.26h6.67ZM181.71,358.9c1.08,0,1.95-.39,2.61-1.16s.99-1.63.99-2.56c0-1-.33-1.87-.99-2.61s-1.47-1.11-2.43-1.11h-7.36v7.44h7.19Z"/>
        <path class="cls-1" d="M204.65,360.07h-1.37l-2.55-5.99h-8.66l-2.52,5.99h-1.42l7.74-18.15h1.12l7.66,18.15ZM200.38,353.01l-3.97-9.51-4.04,9.51h8.01Z"/>
        <path class="cls-1" d="M221.45,360.07h-1.3v-8.69h-11.46v8.69h-1.3v-18.15h1.3v8.29h11.46v-8.29h1.3v18.15Z"/>
        <path class="cls-1" d="M240.22,360.07h-1.3v-8.69h-11.46v8.69h-1.3v-18.15h1.3v8.29h11.46v-8.29h1.3v18.15Z"/>
        <path class="cls-1" d="M252.28,360.1h-.25c-1.17,0-2.26-.26-3.29-.77-2.05-.99-3.52-2.66-4.42-5.01-.4-1.09-.61-2.25-.62-3.48,0-1.5.37-2.94,1.1-4.33.73-1.39,1.76-2.51,3.07-3.35,1.31-.84,2.72-1.26,4.22-1.26h.27c1.16,0,2.28.26,3.34.79,2.01,1.02,3.48,2.71,4.39,5.06.4,1.09.6,2.2.6,3.33,0,2.4-.82,4.51-2.46,6.31s-3.62,2.7-5.95,2.7ZM252.35,358.9c1.01,0,1.97-.23,2.87-.7.9-.47,1.65-1.08,2.25-1.84s1.06-1.61,1.4-2.55c.33-.95.5-1.89.5-2.82,0-1.31-.3-2.58-.91-3.8s-1.47-2.22-2.58-3.01c-1.12-.72-2.34-1.08-3.67-1.08h-.12c-1.35,0-2.58.4-3.71,1.18-1.12.79-1.97,1.78-2.53,2.97-.57,1.19-.85,2.39-.85,3.59v.15c0,2.12.69,3.97,2.06,5.55,1.37,1.58,3.09,2.37,5.15,2.37h.15Z"/>
        <path class="cls-1" d="M278.69,360.07h-1.3v-16.1l-11.78,16.1h-1.37v-18.15h1.32v16.35l11.91-16.35h1.22v18.15ZM271.5,340.23c-1.2,0-2.1-.24-2.7-.71-.6-.47-.92-1.08-.95-1.81h1.07c.1,1.15.96,1.72,2.57,1.72s2.48-.57,2.55-1.72h1.1c-.05.73-.37,1.34-.97,1.81-.6.47-1.49.71-2.67.71Z"/>
        <path class="cls-1" d="M302.77,360.07h-1.6l-6.74-8.66h-3.1v8.66h-1.3v-18.15h1.3v8.29h3.05l6.47-8.29h1.55l-6.91,8.81,7.29,9.34Z"/>
        <path class="cls-1" d="M313.21,360.1h-.25c-1.17,0-2.26-.26-3.29-.77-2.05-.99-3.52-2.66-4.42-5.01-.4-1.09-.61-2.25-.62-3.48,0-1.5.37-2.94,1.1-4.33.73-1.39,1.76-2.51,3.07-3.35,1.31-.84,2.72-1.26,4.22-1.26h.27c1.16,0,2.28.26,3.34.79,2.01,1.02,3.48,2.71,4.39,5.06.4,1.09.6,2.2.6,3.33,0,2.4-.82,4.51-2.46,6.31s-3.62,2.7-5.95,2.7ZM313.28,358.9c1.01,0,1.97-.23,2.87-.7.9-.47,1.65-1.08,2.25-1.84s1.06-1.61,1.4-2.55c.33-.95.5-1.89.5-2.82,0-1.31-.3-2.58-.91-3.8s-1.47-2.22-2.58-3.01c-1.12-.72-2.34-1.08-3.67-1.08h-.12c-1.35,0-2.58.4-3.71,1.18-1.12.79-1.97,1.78-2.53,2.97-.57,1.19-.85,2.39-.85,3.59v.15c0,2.12.69,3.97,2.06,5.55,1.37,1.58,3.09,2.37,5.15,2.37h.15Z"/>
        <path class="cls-1" d="M342.86,360.07h-1.3v-15.63l-7.14,12.23h-.87l-7.14-12.23v15.63h-1.3v-18.15h1.3l7.59,12.98,7.56-12.98h1.3v18.15Z"/>
        <path class="cls-1" d="M361.66,360.07h-1.3v-8.69h-11.46v8.69h-1.3v-18.15h1.3v8.29h11.46v-8.29h1.3v18.15Z"/>
        <path class="cls-1" d="M380.88,360.07h-1.37l-2.55-5.99h-8.66l-2.52,5.99h-1.42l7.74-18.15h1.12l7.66,18.15ZM376.61,353.01l-3.97-9.51-4.04,9.51h8.01Z"/>
        <path class="cls-1" d="M389.67,360.07h-1.3v-16.97h-6.67v-1.17h14.6v1.17h-6.64v16.97Z"/>
        <path class="cls-1" d="M405.37,360.07h-6.27v-18.15h1.3v7.21h4.84c1.35,0,2.45.24,3.31.71.86.47,1.49,1.12,1.88,1.95.4.82.6,1.76.6,2.81s-.21,1.91-.62,2.75c-.42.83-1.04,1.49-1.88,1.98-.84.49-1.89.74-3.16.74ZM405.22,358.95c1.03,0,1.88-.2,2.55-.59.67-.39,1.16-.92,1.47-1.57.32-.66.47-1.39.47-2.18,0-2.9-1.51-4.34-4.54-4.34h-4.77v8.69h4.82ZM415.63,360.07h-1.3v-18.15h1.3v18.15Z"/>
      </g>
    </g>
  </g>
</svg>